HIERARCHY
ROOT Hips
{
	OFFSET 0.00000 0.00000 0.00000
	CHANNELS 6 Xposition Yposition Zposition Zrotation Yrotation Xrotation 
	JOINT LHipJoint
	{
		OFFSET 0 0 0
		CHANNELS 3 Zrotation Yrotation Xrotation
		JOINT LeftHip
		{
			OFFSET 1.84395 -1.68683 0.74144
			CHANNELS 3 Zrotation Yrotation Xrotation
			JOINT LeftKnee
			{
				OFFSET 2.27037 -6.23779 0.00000
				CHANNELS 3 Zrotation Yrotation Xrotation
				JOINT LeftAnkle
				{
					OFFSET 2.56918 -7.05877 0.00000
					CHANNELS 3 Zrotation Yrotation Xrotation
					JOINT LeftToe
					{
						OFFSET 0.22276 -0.61202 1.71784
						CHANNELS 3 Zrotation Yrotation Xrotation
						End Site
						{
							OFFSET 0.00000 -0.00000 0.91613
						}
					}
				}
			}
		}
	}
	JOINT RHipJoint
	{
		OFFSET 0 0 0
		CHANNELS 3 Zrotation Yrotation Xrotation
		JOINT RightHip
		{
			OFFSET -1.76833 -1.68684 0.74144
			CHANNELS 3 Zrotation Yrotation Xrotation
			JOINT RightKnee
			{
				OFFSET -2.49360 -6.85110 0.00000
				CHANNELS 3 Zrotation Yrotation Xrotation
				JOINT RightAnkle
				{
					OFFSET -2.55538 -7.02085 0.00000
					CHANNELS 3 Zrotation Yrotation Xrotation
					JOINT RightToe
					{
						OFFSET -0.21516 -0.59115 1.68050
						CHANNELS 3 Zrotation Yrotation Xrotation
						End Site
						{
							OFFSET -0.00000 -0.00000 0.89604
						}
					}
				}
			}
		}
	}
	JOINT lowerback
	{
		OFFSET 0 0 0
		CHANNELS 3 Zrotation Yrotation Xrotation
		JOINT Chest
		{
			OFFSET 0.06382 1.72312 -0.19613
			CHANNELS 3 Zrotation Yrotation Xrotation
			JOINT Chest2
			{
				OFFSET -0.00055 1.73507 0.23859
				CHANNELS 3 Zrotation Yrotation Xrotation
				JOINT lowerneck
				{
					OFFSET 0 0 0
					CHANNELS 3 Zrotation Yrotation Xrotation
					JOINT Neck
					{
						OFFSET 0.03638 1.65562 0.09633
						CHANNELS 3 Zrotation Yrotation Xrotation
						JOINT Head
						{
							OFFSET 0.06388 1.62807 -0.32386
							CHANNELS 3 Zrotation Yrotation Xrotation
							End Site
							{
								OFFSET 0.00995 1.67644 -0.12021
							}
						}
					}
				}
				JOINT LeftCollar
				{
					OFFSET 0 0 0
					CHANNELS 3 Zrotation Yrotation Xrotation
					JOINT LeftShoulder
					{
						OFFSET 3.09648 1.42991 0.28122
CHANNELS 3 Zrotation Xrotation Yrotation
						JOINT LeftElbow
						{
OFFSET 0 -5.118780 -0.000000
CHANNELS 3 Zrotation Xrotation Yrotation
							JOINT LeftWrist
							{
OFFSET 0 -3.599710 0.000000
CHANNELS 3 Zrotation Xrotation Yrotation
								JOINT lhand
								{
									OFFSET 0 0 0
CHANNELS 3 Zrotation Xrotation Yrotation
									JOINT LFingers
									{
OFFSET 0 -0.628770 0.000000
CHANNELS 3 Zrotation Xrotation Yrotation
										End Site
										{
OFFSET 0 -0.506930 0.000000
										}
									}
								}
								JOINT LThumb
								{
OFFSET 0 0.000000 0.000000
CHANNELS 3 Zrotation Xrotation Yrotation
									End Site
									{
OFFSET 0 -0.514670 0.514670
									}
								}
							}
						}
					}
				}
				JOINT RightCollar
				{
					OFFSET 0 0 0
					CHANNELS 3 Zrotation Yrotation Xrotation
					JOINT RightShoulder
					{
						OFFSET -3.33565 1.14597 0.05047
CHANNELS 3 Zrotation Xrotation Yrotation
						JOINT RightElbow
						{
OFFSET 0 -5.490200 0.000000
CHANNELS 3 Zrotation Xrotation Yrotation
							JOINT RightWrist
							{
OFFSET 0 -3.206590 -0.000000
CHANNELS 3 Zrotation Xrotation Yrotation
								JOINT rhand
								{
									OFFSET 0 0 0
CHANNELS 3 Zrotation Xrotation Yrotation
									JOINT RFingers
									{
OFFSET 0 -0.691880 0.000000
CHANNELS 3 Zrotation Xrotation Yrotation
										End Site
										{
OFFSET 0 -0.557810 0.000000
										}
									}
								}
								JOINT RThumb
								{
OFFSET 0 0.000000 0.000000
CHANNELS 3 Zrotation Xrotation Yrotation
									End Site
									{
OFFSET 0 -0.566330 0.566330
									}
								}
							}
						}
					}
				}
			}
		}
	}
}
MOTION
Frames: 4
Frame Time: 0.008333333333333333
-0.729585 17.916031 7.797745 -8.320283 5.609096 22.312842 0.000000 0.000000 0.000000 -0.428320 -43.861879 -3.507201 0.004838 -0.449560 -1.235284 -6.263854 40.458781 -28.528307 0.015130 0.786170 2.160653 0.000000 0.000000 0.000000 21.741546 34.110517 -6.977691 -0.000381 -0.124941 0.343383 2.279404 -25.935668 -15.024263 -0.163979 -2.606533 7.185249 6.234139 -0.422238 14.054491 4.894381 1.458407 -7.035542 1.663466 0.378794 -15.993777 1.976250 -1.888037 -20.242391 4.513880 -3.934710 13.349247 0.696265 -1.321870 7.486670 0.000000 0.000000 0.000000 -18.800749 -38.455325 -51.475348 33.061777 -43.324250 13.482840 45.495976 -51.742246 1.504901 0.000000 0.000000 0.000000 -7.125000 0.000000 0.000000 14.481388 27.726826 6.255496 0.000000 0.000000 0.000000 15.697270 -47.290707 69.722111 -25.892751 -37.092367 -8.826977 -24.627473 22.118492 52.114323 0.000000 0.000000 0.000000 7.125000 0.000000 0.000000 57.956478 80.564802 -49.541254
-0.777390 17.903617 7.864812 -8.478557 5.684730 21.210897 0.000000 0.000000 0.000000 -1.485202 -42.413550 -2.122654 0.004278 -0.424502 -1.166265 -5.878272 39.483243 -27.733517 0.004909 0.452385 1.243048 0.000000 0.000000 0.000000 23.137899 32.377832 -5.928575 -0.000987 -0.200841 0.551935 2.026867 -24.659613 -14.664571 -0.120376 -2.235710 6.157537 6.266827 -0.581754 13.017484 4.496955 1.112036 -7.421952 1.284731 0.185495 -15.794928 2.644519 -1.774342 -19.971854 4.177539 -3.974992 14.724485 0.470899 -1.301549 7.880299 0.000000 0.000000 0.000000 -16.362718 -34.623794 -49.071746 40.450513 -48.301538 18.785136 45.257793 -58.517590 5.372108 0.000000 0.000000 0.000000 -7.125000 0.000000 0.000000 13.514683 22.428334 7.537057 0.000000 0.000000 0.000000 13.075241 -46.980544 75.404643 -28.676379 -39.725402 -10.555442 -27.610749 22.952321 50.675361 0.000000 0.000000 0.000000 7.125000 0.000000 0.000000 48.076012 81.300274 -41.245661
-0.828337 17.884220 7.934490 -8.575185 5.586655 20.121291 0.000000 0.000000 0.000000 -2.626640 -41.202539 -0.499205 0.004306 -0.425453 -1.168995 -5.534083 38.697120 -27.665719 0.002900 0.349318 0.959676 0.000000 0.000000 0.000000 24.358178 30.682393 -4.919799 -0.001926 -0.285977 0.785615 1.751927 -23.212723 -14.517250 -0.096087 -1.998855 5.502596 6.221634 -0.646640 11.906265 4.008241 0.864096 -7.847384 0.817510 0.037499 -15.594153 3.611121 -1.858925 -19.891644 3.535313 -4.338682 16.507118 0.048389 -1.427346 8.435423 0.000000 0.000000 0.000000 -14.543553 -30.369654 -46.212950 48.423284 -52.334410 24.921774 45.540371 -63.491039 8.419146 0.000000 0.000000 0.000000 -7.125000 0.000000 0.000000 13.081842 18.218522 8.562449 0.000000 0.000000 0.000000 11.268499 -46.363185 80.731297 -31.302279 -41.983125 -12.271795 -30.683506 23.722698 49.146321 0.000000 0.000000 0.000000 7.125000 0.000000 0.000000 36.401509 81.861487 -31.289126
-0.882780 17.858604 8.003038 -8.542075 5.339213 19.030206 0.000000 0.000000 0.000000 -3.896933 -39.998318 1.206916 0.004668 -0.440146 -1.209427 -5.200946 37.961249 -27.860725 0.002648 0.330377 0.907830 0.000000 0.000000 0.000000 25.343049 29.042581 -3.960429 -0.003892 -0.402349 1.105501 1.468389 -21.665812 -14.677313 -0.084937 -1.880013 5.174233 6.033577 -0.596932 10.753009 3.461404 0.741745 -8.306215 0.333993 -0.042367 -15.402427 3.787643 -2.090223 -19.395354 3.749426 -4.819670 18.036652 0.026707 -1.573185 8.876793 0.000000 0.000000 0.000000 -13.336963 -25.692601 -43.118492 57.346265 -55.537459 32.148015 47.104427 -67.479056 10.807348 0.000000 0.000000 0.000000 -7.125000 0.000000 0.000000 13.594908 14.607003 10.019587 0.000000 0.000000 0.000000 10.620473 -45.316975 85.436492 -33.526452 -43.728193 -13.785545 -31.438975 24.093952 48.348902 0.000000 0.000000 0.000000 7.125000 0.000000 0.000000 31.092837 81.677831 -26.526977
